<?xml version="1.0" standalone="no"?><!DOCTYPE svg PUBLIC "-//W3C//DTD SVG 1.1//EN" "http://www.w3.org/Graphics/SVG/1.1/DTD/svg11.dtd"><svg t="1552274028576" class="icon" style="" viewBox="0 0 1024 1024" version="1.1" xmlns="http://www.w3.org/2000/svg" p-id="4642" xmlns:xlink="http://www.w3.org/1999/xlink" width="400" height="400"><defs><style type="text/css"></style></defs><path d="M759.466667 378.88c-15.36-23.893333-32.426667-40.96-40.96-49.493333s-27.306667-8.533333-35.84 3.413333c-8.533333 8.533333-8.533333 25.6 3.413333 34.133333l8.533333 8.533334c8.533333 8.533333 17.066667 20.48 23.893334 32.426666 52.906667 78.506667 52.906667 162.133333-35.84 252.586667-8.533333 8.533333-8.533333 25.6 0 34.133333s27.306667 8.533333 35.84 0c102.4-110.933333 102.4-220.16 40.96-315.733333z" p-id="4643" fill="#ffffff"></path><path d="M875.52 264.533333c-15.36-23.893333-34.133333-44.373333-51.2-64.853333-8.533333-11.946667-18.773333-17.066667-23.893333-23.893333-8.533333-8.533333-27.306667-8.533333-35.84 3.413333-8.533333 8.533333-8.533333 27.306667 3.413333 35.84 3.413333 3.413333 11.946667 8.533333 20.48 20.48 15.36 17.066667 30.72 35.84 46.08 59.733333 100.693333 148.48 100.693333 310.613333-66.56 479.573334-8.533333 8.533333-8.533333 27.306667 0 35.84s27.306667 8.533333 35.84 0c184.32-191.146667 184.32-380.586667 71.68-546.133334zM484.693333 116.053333L278.186667 288.426667h-104.106667c-54.613333 0-104.106667 44.373333-104.106667 100.693333v250.88c0 56.32 46.08 100.693333 104.106667 100.693333h90.453333l218.453334 168.96c51.2 39.253333 100.693333 15.36 100.693333-47.786666V163.84c0-64.853333-51.2-88.746667-98.986667-47.786667z m47.786667 742.4c0 20.48-3.413333 20.48-18.773333 8.533334L290.133333 696.32c-3.413333-3.413333-8.533333-5.12-15.36-5.12h-100.693333c-27.306667 0-51.2-23.893333-51.2-49.493333V389.12c0-27.306667 23.893333-49.493333 51.2-49.493333h112.64c6.826667 0 11.946667-3.413333 15.36-5.12L515.413333 155.306667c13.653333-11.946667 13.653333-11.946667 13.653334 5.12v698.026666h3.413333z" p-id="4644" fill="#ffffff"></path></svg>